<svg width="1358" height="1358" viewBox="0 0 1358 1358" fill="none" xmlns="http://www.w3.org/2000/svg">
<path d="M1239.99 567.943C1107.61 341.211 748.531 421.958 675.199 311.688C637.636 255.304 595.62 189.767 534.673 155.735C476.578 123.143 409.221 111.709 350.501 116C140.798 131.346 51.9037 318.967 92.182 525.003C145.959 799.835 389.584 1080.59 679.001 1082.54C830.391 1083.68 975.045 1029.36 1088.3 952.963L1090.83 951.252C1204.09 874.144 1341.08 741.033 1239.99 567.943Z" fill="#002367"/>
<path opacity="0.7" d="M1239.99 567.943C1107.61 341.211 748.531 421.958 675.199 311.688C637.636 255.304 595.62 189.767 534.673 155.735C476.578 123.143 409.221 111.709 350.501 116C140.798 131.346 51.9037 318.967 92.182 525.003C145.959 799.835 389.584 1080.59 679.001 1082.54C830.391 1083.68 975.045 1029.36 1088.3 952.963L1090.83 951.252C1204.09 874.144 1341.08 741.033 1239.99 567.943Z" fill="white"/>
<path d="M212.365 584.429H197.644C181.847 584.429 166.697 590.704 155.527 601.874C144.357 613.044 138.082 628.194 138.082 643.991V970.834C138.082 986.631 144.357 1001.78 155.527 1012.95C166.697 1024.12 181.847 1030.4 197.644 1030.4H399.606C415.402 1030.4 430.552 1024.12 441.722 1012.95C452.892 1001.78 459.168 986.631 459.168 970.834" stroke="#263238" stroke-width="1.10311" stroke-linecap="round" stroke-linejoin="round" stroke-dasharray="4.41 4.41"/>
<path d="M442.709 276.027V211.468C442.709 201.808 446.541 192.542 453.364 185.704C460.187 178.866 469.443 175.013 479.103 174.992H741.741C751.415 174.992 760.692 178.835 767.533 185.675C774.373 192.516 778.216 201.794 778.216 211.468" stroke="#263238" stroke-width="1.10311" stroke-linecap="round" stroke-linejoin="round" stroke-dasharray="4.41 4.41"/>
<path d="M679 1282.39C966.281 1282.39 1199.17 1249.85 1199.17 1209.71C1199.17 1169.57 966.281 1137.03 679 1137.03C391.719 1137.03 158.832 1169.57 158.832 1209.71C158.832 1249.85 391.719 1282.39 679 1282.39Z" fill="#002367"/>
<path opacity="0.5" d="M679 1282.39C966.281 1282.39 1199.17 1249.85 1199.17 1209.71C1199.17 1169.57 966.281 1137.03 679 1137.03C391.719 1137.03 158.832 1169.57 158.832 1209.71C158.832 1249.85 391.719 1282.39 679 1282.39Z" fill="white"/>
<path d="M1169.35 362.64V851.683C1169.35 867.67 1163 883.002 1151.7 894.309C1140.4 905.616 1125.07 911.971 1109.08 911.979H248.922C232.936 911.971 217.606 905.616 206.305 894.309C195.003 883.002 188.654 867.67 188.654 851.683V362.64C188.654 361.201 188.654 359.924 188.844 358.403C189.903 343.19 196.692 328.945 207.842 318.541C218.992 308.138 233.673 302.35 248.922 302.345H1109.08C1124.35 302.352 1139.04 308.155 1150.19 318.581C1161.35 329.008 1168.12 343.28 1169.16 358.512C1169.29 359.816 1169.35 361.228 1169.35 362.64Z" fill="white" stroke="#263238" stroke-width="1.10311" stroke-linecap="round" stroke-linejoin="round"/>
<path d="M217.986 381H1143.08V832.753C1143.08 847.736 1137.13 862.105 1126.54 872.699C1115.94 883.294 1101.57 889.246 1086.59 889.246H274.506C259.523 889.246 245.154 883.294 234.56 872.699C223.965 862.105 218.013 847.736 218.013 832.753V381H217.986Z" fill="#263238"/>
<path opacity="0.2" d="M1143.11 381V832.753C1143.19 847.652 1137.35 861.972 1126.87 872.566C1116.4 883.16 1102.14 889.159 1087.24 889.246H273.855C258.956 889.159 244.701 883.16 234.225 872.566C223.748 861.972 217.908 847.652 217.987 832.753V381H1143.11Z" fill="white"/>
<path d="M1169.16 358.512H188.844C189.903 343.299 196.692 329.054 207.841 318.65C218.991 308.246 233.672 302.458 248.922 302.454H1109.08C1124.33 302.458 1139.01 308.246 1150.16 318.65C1161.31 329.054 1168.1 343.299 1169.16 358.512Z" fill="#002367" stroke="#263238" stroke-width="1.10311" stroke-miterlimit="10"/>
<path d="M309.299 330.375C309.299 332.486 308.673 334.549 307.5 336.305C306.327 338.06 304.66 339.428 302.71 340.236C300.759 341.044 298.613 341.255 296.543 340.843C294.472 340.431 292.57 339.415 291.077 337.922C289.585 336.429 288.568 334.527 288.156 332.457C287.744 330.386 287.956 328.24 288.764 326.29C289.572 324.339 290.94 322.672 292.695 321.5C294.45 320.327 296.514 319.701 298.625 319.701C301.456 319.701 304.171 320.825 306.173 322.827C308.174 324.829 309.299 327.544 309.299 330.375Z" fill="#263238"/>
<path d="M354.44 330.375C354.44 332.486 353.814 334.549 352.641 336.305C351.468 338.06 349.801 339.428 347.85 340.236C345.9 341.044 343.754 341.255 341.683 340.843C339.613 340.431 337.711 339.415 336.218 337.922C334.725 336.429 333.709 334.527 333.297 332.457C332.885 330.386 333.096 328.24 333.904 326.29C334.712 324.339 336.08 322.672 337.836 321.5C339.591 320.327 341.655 319.701 343.766 319.701C346.597 319.701 349.311 320.825 351.313 322.827C353.315 324.829 354.44 327.544 354.44 330.375Z" fill="#263238"/>
<path d="M388.904 341.048C394.799 341.048 399.578 336.27 399.578 330.375C399.578 324.48 394.799 319.701 388.904 319.701C383.009 319.701 378.23 324.48 378.23 330.375C378.23 336.27 383.009 341.048 388.904 341.048Z" fill="#263238"/>
<path d="M1143.08 381V832.753C1143.08 847.736 1137.13 862.105 1126.54 872.699C1115.94 883.294 1101.57 889.246 1086.59 889.246H274.507C261.43 889.243 248.759 884.704 238.656 876.403C228.552 868.102 221.64 856.553 219.1 843.725V843.562C218.41 839.982 218.064 836.344 218.068 832.698V381H1143.08Z" stroke="#263238" stroke-width="1.10311" stroke-miterlimit="10"/>
<path d="M1142.21 450.856C1138.25 448.632 1134.04 446.89 1129.67 445.668L1124.59 422.99H1103.02L1098 445.668C1093.6 446.868 1089.37 448.611 1085.4 450.856L1065.92 438.389L1050.69 453.572L1062.93 473.046C1060.69 477.016 1058.95 481.249 1057.75 485.648L1035.07 490.672V512.238L1057.75 517.316C1058.94 521.737 1060.68 525.99 1062.93 529.973L1050.47 549.583L1065.73 564.819L1085.31 552.353C1089.28 554.602 1093.5 556.353 1097.89 557.568L1102.94 580.219H1124.42L1129.48 557.568C1133.85 556.341 1138.07 554.59 1142.02 552.353L1143.03 553.005V450.313L1142.21 450.856ZM1113.86 529.62C1108.35 529.62 1102.96 527.985 1098.38 524.922C1093.79 521.859 1090.22 517.505 1088.11 512.411C1086 507.318 1085.45 501.714 1086.53 496.307C1087.61 490.901 1090.26 485.936 1094.16 482.04C1098.06 478.144 1103.03 475.492 1108.44 474.42C1113.85 473.348 1119.45 473.903 1124.54 476.017C1129.63 478.13 1133.98 481.706 1137.04 486.292C1140.1 490.878 1141.73 496.268 1141.73 501.781C1141.73 505.439 1141 509.061 1139.6 512.441C1138.2 515.82 1136.15 518.89 1133.56 521.476C1130.97 524.061 1127.9 526.111 1124.52 527.509C1121.14 528.906 1117.52 529.623 1113.86 529.62Z" fill="#263238"/>
<path d="M753.555 472.72V427.254L705.753 416.634C703.173 407.398 699.528 398.493 694.889 390.099L700.674 381H474.975L480.542 389.855C475.847 398.211 472.198 407.114 469.678 416.363L421.85 427.01V472.584L469.678 483.258C472.198 492.575 475.847 501.55 480.542 509.983L454.279 551.294L486.463 583.451L527.746 557.16C536.121 561.871 545.03 565.564 554.282 568.16L564.928 615.826H610.286L620.987 568.051C630.208 565.443 639.088 561.751 647.441 557.052L688.751 583.342L720.908 551.185L694.808 509.875C699.434 501.494 703.08 492.609 705.672 483.394L753.555 472.72ZM587.879 508.734C576.26 508.734 564.901 505.289 555.241 498.833C545.58 492.378 538.05 483.203 533.603 472.468C529.157 461.734 527.994 449.922 530.26 438.526C532.527 427.13 538.122 416.662 546.338 408.446C554.554 400.231 565.022 394.635 576.418 392.369C587.813 390.102 599.626 391.265 610.36 395.712C621.095 400.158 630.27 407.688 636.725 417.349C643.18 427.01 646.626 438.368 646.626 449.987C646.629 457.703 645.112 465.344 642.161 472.473C639.21 479.602 634.883 486.079 629.427 491.535C623.971 496.991 617.494 501.318 610.364 504.269C603.235 507.22 595.594 508.738 587.879 508.734Z" fill="#263238"/>
<path d="M451.888 784.924L453.817 748.828L416.417 738.29C414.681 730.872 412.112 723.674 408.758 716.834L431.355 685.111L407.129 658.25L373.287 677.262C366.819 673.192 359.901 669.884 352.673 667.403L346.209 629.053L310.14 627.396L299.711 664.904C292.28 666.57 285.076 669.124 278.254 672.509L246.559 649.939L219.643 674.138L238.818 708.007C234.707 714.447 231.388 721.359 228.932 728.594L218.068 730.387V779.275L225.999 781.502C227.644 788.944 230.188 796.158 233.576 802.985L217.986 824.849L219.018 843.562V843.725L235.124 861.57L269.02 842.422C275.477 846.575 282.418 849.922 289.689 852.389L296.044 889.218L296.343 890.767L332.411 892.668L333.362 889.218L342.841 855.187C350.305 853.516 357.544 850.963 364.406 847.582L396.047 870.125L422.936 845.953L403.924 812.057C407.996 805.625 411.271 798.72 413.674 791.497L451.888 784.924ZM356.095 728.567C349.917 721.695 341.839 716.81 332.883 714.529C323.928 712.249 314.498 712.675 305.785 715.756C297.072 718.836 289.469 724.431 283.936 731.833C278.404 739.235 275.191 748.112 274.705 757.34C274.218 766.568 276.48 775.734 281.203 783.677C285.927 791.62 292.9 797.983 301.24 801.962C309.581 805.941 318.914 807.357 328.06 806.031C337.205 804.705 345.752 800.696 352.618 794.511C361.787 786.228 367.3 774.65 367.952 762.311C368.603 749.973 364.34 737.878 356.095 728.676V728.567Z" fill="#263238"/>
<path d="M740.382 731.12C741.778 725.531 742.516 719.797 742.582 714.037L768.52 700.457L761.35 674.139L732.071 675.497C729.106 670.578 725.579 666.02 721.561 661.917L730.225 633.915L706.595 620.335L686.823 641.9C681.243 640.553 675.533 639.824 669.794 639.727L656.214 613.789L629.923 620.932L631.308 650.238C626.389 653.202 621.831 656.73 617.728 660.749L589.699 652.085L576.119 675.687L597.847 695.432C596.442 701 595.721 706.719 595.701 712.461L569.709 726.041L576.879 752.332L606.212 750.947C609.119 755.891 612.632 760.453 616.669 764.527L607.95 792.393L631.607 805.973L651.27 784.571C656.857 785.977 662.594 786.698 668.354 786.717L681.934 812.682L708.225 805.539L707.057 780.497L706.867 776.206C711.855 773.27 716.47 769.74 720.61 765.695L748.612 774.386L760.182 754.179L762.138 750.757L740.382 731.12ZM678.268 747.09C671.525 748.95 664.383 748.765 657.746 746.559C651.109 744.354 645.276 740.227 640.988 734.702C636.7 729.177 634.149 722.503 633.659 715.526C633.169 708.55 634.762 701.585 638.236 695.515C641.71 689.445 646.909 684.543 653.173 681.432C659.436 678.32 666.483 677.139 673.419 678.038C680.354 678.937 686.867 681.875 692.131 686.481C697.394 691.086 701.171 697.151 702.983 703.906C705.398 712.909 704.155 722.502 699.525 730.591C694.894 738.681 687.253 744.612 678.268 747.09Z" fill="#263238"/>
<path d="M1041.1 777.401L1047.07 741.278L1010.52 726.584C1009.69 718.886 1007.93 711.316 1005.27 704.041L1031.59 674.736L1010.3 644.86L974.013 660.259C967.989 655.431 961.405 651.345 954.404 648.092L952.285 608.737L916.162 602.762L901.36 639.156C893.695 640.057 886.159 641.834 878.899 644.452L849.512 618.134L819.772 639.428L835.199 675.686C830.952 680.986 827.266 686.711 824.199 692.77C823.791 693.612 823.357 694.454 822.977 695.296L783.649 697.469L777.646 733.537L783.567 735.927L814.204 748.285C815.04 755.947 816.8 763.48 819.446 770.719L793.073 800.215L814.394 830.091L850.653 814.61C856.657 819.482 863.233 823.604 870.235 826.886L872.272 866.051L908.368 872.026L923.143 835.903C930.825 835.064 938.376 833.295 945.631 830.634L974.964 856.952L1004.84 835.632L989.413 799.346C994.327 793.316 998.478 786.702 1001.77 779.655L1041.1 777.401ZM939.792 775.771C932.192 781.223 923.147 784.3 913.799 784.611C904.451 784.922 895.221 782.454 887.276 777.519C879.331 772.584 873.028 765.403 869.165 756.886C865.301 748.368 864.049 738.896 865.569 729.668C867.089 720.439 871.311 711.869 877.702 705.04C884.093 698.211 892.366 693.431 901.474 691.304C910.582 689.178 920.116 689.8 928.87 693.092C937.625 696.384 945.206 702.198 950.656 709.799C957.956 719.996 960.906 732.674 958.859 745.046C956.811 757.418 949.933 768.47 939.737 775.771H939.792Z" fill="#263238"/>
<path d="M551.566 509.983H267.527C247.862 509.983 231.92 525.925 231.92 545.59V938.839C231.92 958.504 247.862 974.446 267.527 974.446H551.566C571.231 974.446 587.173 958.504 587.173 938.839V545.59C587.173 525.925 571.231 509.983 551.566 509.983Z" fill="#002367" stroke="#263238" stroke-width="1.10311" stroke-miterlimit="10"/>
<path opacity="0.2" d="M551.566 509.983H267.527C247.862 509.983 231.92 525.925 231.92 545.59V938.839C231.92 958.504 247.862 974.446 267.527 974.446H551.566C571.231 974.446 587.173 958.504 587.173 938.839V545.59C587.173 525.925 571.231 509.983 551.566 509.983Z" fill="black"/>
<path d="M620.226 580.68V973.93C620.229 978.608 619.311 983.241 617.523 987.565C615.735 991.888 613.113 995.816 609.806 999.125C606.5 1002.43 602.573 1005.06 598.251 1006.85C593.93 1008.64 589.297 1009.56 584.619 1009.56H300.58C295.904 1009.56 291.274 1008.64 286.956 1006.84C282.637 1005.05 278.714 1002.42 275.41 999.116C272.106 995.807 269.486 991.88 267.7 987.558C265.914 983.237 264.996 978.606 265 973.93V580.68C265 571.242 268.748 562.189 275.419 555.512C282.091 548.836 291.141 545.081 300.58 545.074H584.619C594.062 545.074 603.119 548.825 609.797 555.503C616.474 562.18 620.226 571.237 620.226 580.68Z" fill="white" stroke="#263238" stroke-width="1.10311" stroke-linecap="round" stroke-linejoin="round"/>
<path d="M620.226 580.68V601.729H265V580.68C265 571.242 268.748 562.189 275.419 555.512C282.091 548.836 291.141 545.081 300.58 545.074H584.619C594.062 545.074 603.119 548.825 609.797 555.503C616.474 562.18 620.226 571.237 620.226 580.68Z" fill="#002367" stroke="#263238" stroke-width="1.10311" stroke-miterlimit="10"/>
<path d="M385.809 626.119H298.408V640.786H385.809V626.119Z" fill="#002367"/>
<path d="M385.809 757.546H298.408V772.213H385.809V757.546Z" fill="#002367"/>
<path d="M385.809 876.725H298.408V891.391H385.809V876.725Z" fill="#002367"/>
<path d="M546.623 662.432H298.408V673.188H546.623V662.432Z" fill="#263238"/>
<path d="M501.864 682.992H298.408V693.476H501.864V682.992Z" fill="#263238"/>
<path d="M528.508 703.227H298.408V713.71H528.508V703.227Z" fill="#263238"/>
<path d="M528.508 723.434H298.408V733.917H528.508V723.434Z" fill="#263238"/>
<path d="M546.623 781.61H298.408V792.366H546.623V781.61Z" fill="#263238"/>
<path d="M501.864 802.17H298.408V812.654H501.864V802.17Z" fill="#263238"/>
<path d="M528.508 822.404H298.408V832.888H528.508V822.404Z" fill="#263238"/>
<path d="M546.623 912.467H298.408V923.223H546.623V912.467Z" fill="#263238"/>
<path d="M501.864 933.055H298.408V943.538H501.864V933.055Z" fill="#263238"/>
<path d="M528.508 953.289H298.408V963.772H528.508V953.289Z" fill="#263238"/>
<path d="M1020.59 272.387V431.328C1020.59 436.905 1019.49 442.427 1017.36 447.579C1015.22 452.732 1012.09 457.412 1008.15 461.355C1004.2 465.297 999.52 468.423 994.367 470.555C989.213 472.687 983.69 473.782 978.113 473.779H612.051C606.473 473.782 600.95 472.687 595.797 470.555C590.643 468.423 585.96 465.297 582.015 461.355C578.071 457.412 574.941 452.732 572.806 447.579C570.671 442.427 569.572 436.905 569.572 431.328V272.387C569.579 261.124 574.057 250.323 582.022 242.359C589.986 234.394 600.787 229.916 612.051 229.909H978.113C989.379 229.909 1000.18 234.385 1008.15 242.351C1016.12 250.317 1020.59 261.121 1020.59 272.387Z" fill="white" stroke="#222221" stroke-width="1.10311" stroke-miterlimit="10"/>
<path d="M1020.59 272.387V276.027H569.572V272.387C569.579 261.124 574.057 250.323 582.022 242.359C589.986 234.394 600.787 229.916 612.051 229.909H978.113C989.379 229.909 1000.18 234.385 1008.15 242.351C1016.12 250.317 1020.59 261.121 1020.59 272.387Z" fill="#002367" stroke="#263238" stroke-width="1.10311" stroke-miterlimit="10"/>
<path d="M635.844 260.573C634.933 261.486 633.772 262.108 632.507 262.361C631.242 262.614 629.93 262.486 628.738 261.993C627.546 261.5 626.528 260.664 625.811 259.592C625.094 258.52 624.711 257.259 624.711 255.969C624.711 254.679 625.094 253.418 625.811 252.346C626.528 251.274 627.546 250.438 628.738 249.945C629.93 249.452 631.242 249.324 632.507 249.577C633.772 249.83 634.933 250.452 635.844 251.365C637.057 252.591 637.737 254.245 637.737 255.969C637.737 257.693 637.057 259.347 635.844 260.573Z" fill="#263238"/>
<path d="M666.045 260.573C665.134 261.486 663.973 262.108 662.708 262.361C661.443 262.614 660.132 262.486 658.94 261.993C657.748 261.5 656.729 260.664 656.012 259.592C655.295 258.52 654.912 257.259 654.912 255.969C654.912 254.679 655.295 253.418 656.012 252.346C656.729 251.274 657.748 250.438 658.94 249.945C660.132 249.452 661.443 249.324 662.708 249.577C663.973 249.83 665.134 250.452 666.045 251.365C667.258 252.591 667.938 254.245 667.938 255.969C667.938 257.693 667.258 259.347 666.045 260.573Z" fill="#263238"/>
<path d="M696.246 260.573C695.336 261.486 694.174 262.108 692.909 262.361C691.644 262.614 690.333 262.486 689.141 261.993C687.949 261.5 686.93 260.664 686.213 259.592C685.496 258.52 685.113 257.259 685.113 255.969C685.113 254.679 685.496 253.418 686.213 252.346C686.93 251.274 687.949 250.438 689.141 249.945C690.333 249.452 691.644 249.324 692.909 249.577C694.174 249.83 695.336 250.452 696.246 251.365C697.459 252.591 698.139 254.245 698.139 255.969C698.139 257.693 697.459 259.347 696.246 260.573Z" fill="#263238"/>
<path d="M745.76 305.251H598.336V432.686H745.76V305.251Z" stroke="#263238" stroke-width="1.10311" stroke-linecap="round" stroke-linejoin="round" stroke-dasharray="4.41 4.41"/>
<path d="M938.188 305.251H768.52V314.214H938.188V305.251Z" fill="#263238"/>
<path d="M898.67 323.801H768.52V332.737H898.67V323.801Z" fill="#263238"/>
<path d="M962.306 342.27H768.52V351.314H962.306V342.27Z" fill="#263238"/>
<path d="M933.544 360.277H768.52V369.322H933.544V360.277Z" fill="#263238"/>
<path d="M1032.92 666.859H949.948C940.153 666.859 932.213 674.8 932.213 684.595V733.293C932.213 743.088 940.153 751.028 949.948 751.028H1032.92C1042.72 751.028 1050.66 743.088 1050.66 733.293V684.595C1050.66 674.8 1042.72 666.859 1032.92 666.859Z" fill="white" stroke="#263238" stroke-width="1.10311" stroke-linecap="round" stroke-linejoin="round"/>
<path d="M970.428 692.172L947.641 706.458L968.798 725.199" stroke="#263238" stroke-width="1.10311" stroke-linecap="round" stroke-linejoin="round"/>
<path d="M1011.93 726.557L1032.41 709.12L1008.78 693.639" stroke="#263238" stroke-width="1.10311" stroke-linecap="round" stroke-linejoin="round"/>
<path d="M981.508 737.312L998.32 684.567" stroke="#263238" stroke-width="1.10311" stroke-linecap="round" stroke-linejoin="round"/>
<path d="M806.271 1196.32C806.271 1196.32 727.507 1218.89 716.507 1222.8C706.512 1226.33 679.407 1235.83 659.064 1232.87C657.1 1232.59 655.158 1232.17 653.252 1231.62C632.637 1225.49 623.376 1219.76 620.66 1206.8C617.944 1193.84 628.21 1184.28 638.096 1178.17C647.983 1172.06 701.596 1165.68 701.596 1165.68L714.552 1169.48L806.271 1196.32Z" fill="#002367"/>
<path d="M659.064 1232.87C657.1 1232.59 655.158 1232.17 653.252 1231.62C632.637 1225.49 623.376 1219.76 620.66 1206.8C617.944 1193.84 628.21 1184.28 638.096 1178.17C647.983 1172.06 701.596 1165.68 701.596 1165.68L714.552 1169.48C702.819 1174.91 659.145 1177.87 649.612 1183.36C640.079 1188.85 635.489 1199.17 641.111 1213.24C644.126 1220.57 652.165 1227.77 659.064 1232.87Z" fill="white"/>
<path d="M794.429 1199.52C794.429 1199.52 735.275 1214.84 711.809 1224.64C688.342 1234.45 643.61 1238.74 627.613 1218.53C611.615 1198.33 625.766 1180.89 641.709 1177.01C657.652 1173.12 689.891 1167.01 707.49 1169.48" stroke="#263238" stroke-width="1.10311" stroke-linecap="round" stroke-linejoin="round"/>
<path d="M660.232 1231.81C660.232 1231.81 630.139 1215.3 640.133 1192.16C647.521 1175.1 687.663 1178.8 707.545 1169.48" stroke="#263238" stroke-width="1.10311" stroke-linecap="round" stroke-linejoin="round"/>
<path d="M1046.17 1236.54C1045.36 1244.69 1042.51 1252.32 1034.36 1257.13C1028.93 1260.33 1021.21 1262.23 1010.16 1262.13C982.539 1261.77 930.609 1242.03 930.609 1242.03L881.992 1215.14L907.278 1175.13L914.204 1164.27L932.075 1168.29C932.075 1168.29 946.877 1176.68 961.761 1183.36C976.645 1190.04 1012.79 1191.51 1025.53 1201.75C1038.27 1211.99 1047.56 1223.12 1046.17 1236.54Z" fill="#002367"/>
<path d="M1046.18 1236.54C1045.36 1244.69 1042.51 1252.32 1034.36 1257.13C1036.71 1249.12 1036.23 1240.54 1033 1232.85C1027.57 1220.65 1009.89 1209.9 986.641 1208.1C963.392 1206.31 945.602 1195.45 936.286 1190.59C929.007 1186.81 913.662 1178.55 907.279 1175.13L914.205 1164.27L932.076 1168.29C932.076 1168.29 946.879 1176.68 961.762 1183.36C976.646 1190.04 1012.8 1191.51 1025.53 1201.75C1038.27 1211.99 1047.56 1223.12 1046.18 1236.54Z" fill="white"/>
<path d="M892.776 1222.69C927.772 1243.03 966.449 1256.24 1006.58 1261.55C1015.43 1262.61 1025.72 1262.78 1031.65 1256.12C1033.22 1254.2 1034.39 1251.98 1035.09 1249.6C1035.79 1247.21 1036.01 1244.71 1035.72 1242.24C1034.66 1229.75 1024.15 1219.86 1012.63 1214.89C1001.12 1209.92 988.434 1208.78 976.185 1206.04C964.003 1203.29 952.226 1198.98 941.148 1193.22C932.348 1188.63 923.847 1183.06 914.151 1181C904.455 1178.93 892.912 1181.43 887.725 1189.91" stroke="#263238" stroke-width="1.10311" stroke-linecap="round" stroke-linejoin="round"/>
<path d="M1028.39 1259.52C1032.94 1257.34 1036.92 1254.13 1040 1250.14C1043.09 1246.15 1045.21 1241.49 1046.18 1236.54C1047.94 1224.78 1041.23 1212.94 1031.81 1205.71C1022.38 1198.49 1010.57 1195.07 998.918 1192.65C987.266 1190.23 975.343 1188.6 964.18 1184.18C947.151 1177.49 930.339 1164.35 912.576 1169.05" stroke="#263238" stroke-width="1.10311" stroke-linecap="round" stroke-linejoin="round"/>
<path d="M947.638 801.926L865.371 770.638L864.338 770.23C864.338 770.23 864.637 768.058 864.882 764.798C865.398 758.226 865.669 747.525 862.573 743.912C857.983 738.48 845.001 743.043 832.317 737.231C819.633 731.419 796.194 741.821 796.194 741.821C796.194 741.821 779.246 738.698 771.75 750.92C767.948 760.779 769.251 775.364 769.251 775.364L767.703 775.907C757.898 779.573 704.556 799.645 693.285 807.711C680.818 816.538 667.021 907.171 662.594 933.788C658.167 960.405 650.29 984.387 654.283 993.54C658.276 1002.69 715.583 1046.83 748.555 1058.21C781.528 1069.59 898.451 1066.36 898.451 1066.36C898.451 1066.36 900.353 1065.84 903.748 1064.75C923.52 1058.4 993.674 1032.16 1030.91 970.563C1030.97 970.671 994.897 852.444 947.638 801.926ZM725.361 954.375C719.304 958.667 722.645 975.288 722.645 975.288L712.351 966.217L738.207 902.635L749.234 951.523C749.234 951.523 731.417 950.111 725.361 954.375ZM932.211 994.762C929.36 996.229 940.359 965.674 935.145 958.748C929.93 951.822 914.204 952.474 914.204 952.474L915.535 944.136L924.851 896.334L927.947 892.668C927.947 892.668 959.942 947.504 965.672 966.842C965.672 966.896 930.799 994.762 932.211 994.762Z" fill="#002367"/>
<path d="M792.311 603.631L749.833 648.716C749.833 648.716 743.993 653.904 746.302 666.968C748.61 680.032 754.042 691.412 758.144 692.172C761.39 692.741 764.679 693.032 767.976 693.042C767.976 693.042 777.074 712.76 783.538 720.5C783.538 720.5 785.765 750.947 784.57 759.393C784.57 759.393 799.834 772.729 814.202 774.413C828.569 776.097 850.759 754.097 850.759 754.097L856.191 727.155C856.191 727.155 869.228 707.382 870.097 702.113C870.966 696.844 876.941 698.202 879.875 695.595C882.808 692.987 889.571 681.39 890.739 670.417C891.907 659.445 891.934 646.842 879.196 650.536C868.142 647.576 875.067 624.218 875.067 624.218L855.648 607.107L792.311 603.631Z" fill="white"/>
<path opacity="0.5" d="M865.371 770.638C864.73 772.316 863.996 773.957 863.171 775.554C856.164 788.753 825.636 813.931 825.636 813.931L816.401 785.549L811.35 813.931C801.165 809.476 770.094 782.561 770.094 782.561C770.094 782.561 769.034 780.035 767.758 776.097L769.306 775.554C769.306 775.554 768.002 760.86 771.805 751.11C779.247 738.888 796.249 742.011 796.249 742.011C796.249 742.011 819.688 731.609 832.371 737.421C845.055 743.233 858.038 738.725 862.628 744.102C867.218 749.48 864.393 770.339 864.393 770.339L865.371 770.638Z" fill="white"/>
<path opacity="0.2" d="M947.639 801.926L865.372 770.638L864.339 770.23C864.339 770.23 864.638 768.058 864.883 764.798L863.172 775.472L851.004 791.986C864.011 796.775 876.71 802.362 889.028 808.716C894.925 811.875 899.736 816.734 902.836 822.662C905.936 828.591 907.181 835.315 906.41 841.96L891.255 971.649L885.035 1045.28L903.803 1064.75C923.575 1058.4 993.73 1032.16 1030.97 970.563C1030.97 970.671 994.898 852.444 947.639 801.926ZM932.212 994.762C929.361 996.229 940.36 965.674 935.146 958.748C929.931 951.822 914.205 952.474 914.205 952.474L915.536 944.136L924.852 896.334L927.948 892.668C927.948 892.668 959.943 947.504 965.673 966.842C965.673 966.896 930.8 994.762 932.212 994.762Z" fill="black"/>
<path opacity="0.2" d="M754.694 958.748L741.902 915.998C741.902 915.998 718.952 837.75 703.226 818.466L707.354 873.492C707.354 873.492 693.774 939.22 681.362 958.748C668.95 978.276 666.18 983.192 681.362 983.192C696.545 983.192 733.509 1012.63 733.509 1012.63L730.658 988.189L754.694 958.748ZM722.455 975.288L712.162 966.217L738.018 902.635L749.045 951.523C749.045 951.523 731.337 950.192 725.28 954.456C719.223 958.721 722.455 975.288 722.455 975.288Z" fill="black"/>
<path d="M783.539 720.5C783.539 720.5 785.875 743.559 783.539 754.097" stroke="#263238" stroke-width="1.10311" stroke-linecap="round" stroke-linejoin="round"/>
<path d="M853.121 751.001C853.146 743.586 854.003 736.198 855.674 728.974" stroke="#263238" stroke-width="1.10311" stroke-linecap="round" stroke-linejoin="round"/>
<path d="M859.288 620.823C859.288 620.823 873.248 638.341 872.515 651.596C871.782 664.85 870.75 680.548 871.103 695.921C871.456 711.293 846.414 743.505 833.54 746.357C820.666 749.209 809.585 749.942 801.356 741.712C793.126 733.483 784.897 722.049 774.196 707.382C763.495 692.716 766.048 660.531 766.048 660.531" stroke="#263238" stroke-width="1.10311" stroke-linecap="round" stroke-linejoin="round"/>
<path d="M825.663 672.78C824.812 677.593 824.448 682.479 824.576 687.365C824.297 691.483 825.576 695.555 828.162 698.772C829.71 700.348 831.937 701.624 832.236 703.797C832.228 704.775 831.957 705.733 831.45 706.57C830.943 707.406 830.22 708.09 829.357 708.55C827.615 709.429 825.936 710.427 824.332 711.538" stroke="#263238" stroke-width="1.10311" stroke-linecap="round" stroke-linejoin="round"/>
<path d="M803.582 713.222C803.582 713.222 805.184 723.624 819.118 725.797" stroke="#263238" stroke-width="1.10311" stroke-linecap="round" stroke-linejoin="round"/>
<path d="M805.021 680.711C805.021 683.726 803.717 686.143 802.115 686.143C800.513 686.143 799.209 683.726 799.209 680.711C799.209 677.696 800.513 675.279 802.115 675.279C803.717 675.279 805.021 677.723 805.021 680.711Z" fill="#263238"/>
<path d="M846.603 682.015C846.603 685.029 845.3 687.447 843.697 687.447C842.095 687.447 840.791 685.002 840.791 682.015C840.791 679.027 842.095 676.583 843.697 676.583C845.3 676.583 846.603 679 846.603 682.015Z" fill="#263238"/>
<path d="M838.211 668.842C838.211 668.842 851.791 655.262 863.171 670.417" stroke="#263238" stroke-width="2.20621" stroke-linecap="round" stroke-linejoin="round"/>
<path d="M809.612 669.114C809.612 669.114 801.03 659.499 787.504 669.114" stroke="#263238" stroke-width="2.20621" stroke-linecap="round" stroke-linejoin="round"/>
<path d="M784.571 733.32C784.571 733.32 792.855 756.134 811.351 762.625C829.847 769.117 854.399 735.465 854.399 735.465L853.123 731.093C853.123 731.093 837.017 752.006 819.119 748.448C801.22 744.89 783.539 720.609 783.539 720.609L784.571 733.32Z" fill="#263238"/>
<path d="M767.975 692.172C767.975 692.172 756.948 696.056 754.015 687.474C751.082 678.891 741.033 656.267 749.833 648.716C758.632 641.166 765.694 658.684 765.694 658.684" stroke="#263238" stroke-width="1.10311" stroke-linecap="round" stroke-linejoin="round"/>
<path d="M871.074 696.844C871.074 696.844 881.314 698.908 884.247 690.325C887.18 681.743 897.229 659.119 888.429 651.568C879.63 644.018 872.568 661.536 872.568 661.536" stroke="#263238" stroke-width="1.10311" stroke-linecap="round" stroke-linejoin="round"/>
<path d="M765.695 680.711C769.525 680.107 772.982 678.068 775.364 675.007C776.818 672.321 777.74 669.379 778.08 666.343C779.088 660.567 779.597 654.715 779.601 648.852C779.481 646.562 779.692 644.266 780.225 642.035C781.041 639.79 782.297 637.731 783.919 635.978C787.749 631.47 792.393 627.667 796.06 622.996C798.025 620.791 799.521 618.209 800.455 615.408C801.388 612.606 801.741 609.643 801.492 606.7C809.894 613.628 819.713 618.631 830.256 621.357C840.8 624.083 851.813 624.467 862.52 622.48C881.94 618.678 900.544 601.648 898.29 580.246C897.864 576.658 896.326 573.293 893.89 570.624C891.454 567.954 888.244 566.114 884.71 565.362C875.122 562.972 866.513 568.078 857.822 571.365C841.987 577.34 826.479 567.074 810.482 565.362C796.902 563.869 779.981 565.58 772.865 579.187C772.865 579.187 748.421 582.066 737.557 602.273C726.693 622.48 747.253 650.428 747.253 650.428C747.253 650.428 755.401 640.433 766.075 660.64L765.695 680.711Z" fill="#263238"/>
<path d="M860.971 615.663C860.971 615.663 854.616 648.798 871.21 664.85C871.21 664.85 874.85 654.882 878.516 652.437C881.16 646.557 882.28 640.105 881.772 633.678C881.264 627.251 879.145 621.055 875.61 615.663C863.334 596.379 860.971 615.663 860.971 615.663Z" fill="#263238"/>
<path opacity="0.2" d="M891.227 577.965C889.77 582.486 887.3 586.615 884.005 590.037C880.71 593.458 876.678 596.083 872.215 597.71C849.183 607.108 826.831 596.705 803.745 594.668C784.923 592.984 764.145 609.986 762.814 629.324" stroke="white" stroke-width="1.10311" stroke-linecap="round" stroke-linejoin="round"/>
<path opacity="0.2" d="M748.611 624.218C748.893 616.587 751.342 609.194 755.67 602.903C759.999 596.612 766.029 591.683 773.055 588.693" stroke="white" stroke-width="1.10311" stroke-linecap="round" stroke-linejoin="round"/>
<path d="M778.215 751.001C788.343 761.557 800.563 769.882 814.093 775.445C814.093 775.445 841.661 767.433 855.675 748.285" stroke="#263238" stroke-width="1.10311" stroke-linecap="round" stroke-linejoin="round"/>
<path d="M806.387 702.826C818.63 697.21 824.003 682.732 818.387 670.489C812.771 658.245 798.293 652.872 786.05 658.488C773.806 664.104 768.433 678.582 774.049 690.826C779.665 703.069 794.143 708.442 806.387 702.826Z" stroke="#263238" stroke-width="1.10311" stroke-linecap="round" stroke-linejoin="round"/>
<path d="M853.649 704.973C867.018 703.331 876.526 691.162 874.884 677.792C873.243 664.423 861.074 654.915 847.704 656.557C834.334 658.199 824.827 670.368 826.468 683.737C828.11 697.107 840.279 706.614 853.649 704.973Z" stroke="#263238" stroke-width="1.10311" stroke-linecap="round" stroke-linejoin="round"/>
<path d="M783.539 741.902C781.068 742.551 778.753 743.691 776.732 745.254C774.712 746.818 773.027 748.772 771.778 751.001C767.46 758.606 770.067 782.534 770.067 782.534C770.067 782.534 792.366 804.588 811.351 813.904L816.945 782.425L825.637 813.904C825.637 813.904 855.024 793.126 863.172 775.554C863.172 775.554 865.888 755.048 863.172 748.394C862.554 746.545 861.379 744.934 859.808 743.781C858.237 742.628 856.347 741.991 854.399 741.957" stroke="#263238" stroke-width="1.10311" stroke-linecap="round" stroke-linejoin="round"/>
<path d="M748.611 952.501C748.611 952.501 739.892 894.107 728.295 870.288" stroke="#263238" stroke-width="1.10311" stroke-linecap="round" stroke-linejoin="round"/>
<path d="M703.227 818.466C709.979 828.063 716.007 838.149 721.261 848.641" stroke="#263238" stroke-width="1.10311" stroke-linecap="round" stroke-linejoin="round"/>
<path d="M932.213 862.058C934.554 852.295 937.763 842.76 941.8 833.567" stroke="#263238" stroke-width="1.10311" stroke-linecap="round" stroke-linejoin="round"/>
<path d="M914.205 952.501C914.205 952.501 920.479 912.467 927.975 879.495" stroke="#263238" stroke-width="1.10311" stroke-linecap="round" stroke-linejoin="round"/>
<path d="M924.852 896.28C930.916 888.24 939.443 882.402 949.133 879.658" stroke="#263238" stroke-width="1.10311" stroke-linecap="round" stroke-linejoin="round"/>
<path d="M864.367 770.23C864.367 770.23 914.966 790.465 947.64 801.953C947.64 801.953 987.837 839.733 1030.94 970.671C1030.94 970.671 991.449 1037.1 916.324 1058.4" stroke="#263238" stroke-width="1.10311" stroke-linecap="round" stroke-linejoin="round"/>
<path d="M929.359 997.125L965.672 966.896C965.672 966.896 984.874 952.311 1004.84 962.279" stroke="#263238" stroke-width="1.10311" stroke-linecap="round" stroke-linejoin="round"/>
<path d="M927.975 892.667C927.975 892.667 957.986 937.02 965.673 966.896" stroke="#263238" stroke-width="1.10311" stroke-linecap="round" stroke-linejoin="round"/>
<path d="M722.863 976.972L712.243 966.896C712.243 966.896 696.49 964.18 678.619 976.103" stroke="#263238" stroke-width="1.10311" stroke-linecap="round" stroke-linejoin="round"/>
<path d="M712.242 966.896C712.242 966.896 725.442 923.44 738.452 901.196" stroke="#263238" stroke-width="1.10311" stroke-linecap="round" stroke-linejoin="round"/>
<path d="M769.305 775.554C769.305 775.554 696.489 802.877 689.346 810.862C682.203 818.847 655.07 971.622 654.337 989.113C653.712 1004.76 710.423 1039.87 738.533 1054.68" stroke="#263238" stroke-width="1.10311" stroke-linecap="round" stroke-linejoin="round"/>
<path d="M823.763 827.185C823.763 828.136 823.481 829.065 822.953 829.856C822.425 830.646 821.674 831.262 820.795 831.626C819.917 831.99 818.95 832.085 818.018 831.9C817.085 831.714 816.229 831.256 815.556 830.584C814.884 829.912 814.426 829.055 814.241 828.123C814.055 827.19 814.151 826.224 814.514 825.345C814.878 824.467 815.494 823.716 816.285 823.188C817.075 822.659 818.005 822.378 818.956 822.378C819.588 822.374 820.215 822.496 820.8 822.736C821.385 822.976 821.916 823.33 822.363 823.777C822.81 824.225 823.164 824.756 823.404 825.341C823.645 825.926 823.767 826.552 823.763 827.185Z" fill="#263238"/>
<path d="M908.013 1083.09H742.337C741.307 1083.09 740.319 1082.68 739.591 1081.95C738.862 1081.22 738.453 1080.23 738.453 1079.2C738.453 1078.17 738.862 1077.18 739.591 1076.46C740.319 1075.73 741.307 1075.32 742.337 1075.32H908.013C909.043 1075.32 910.031 1075.73 910.759 1076.46C911.488 1077.18 911.897 1078.17 911.897 1079.2C911.897 1080.23 911.488 1081.22 910.759 1081.95C910.031 1082.68 909.043 1083.09 908.013 1083.09Z" fill="#263238"/>
<path d="M913.824 1070.1L936.014 965.809C936.358 964.192 936.337 962.519 935.95 960.911C935.564 959.303 934.823 957.803 933.781 956.519C932.739 955.235 931.423 954.2 929.93 953.491C928.436 952.782 926.803 952.416 925.15 952.419H731.499C729.86 952.42 728.241 952.784 726.759 953.485C725.278 954.187 723.97 955.208 722.931 956.476C721.892 957.744 721.147 959.226 720.75 960.817C720.353 962.407 720.314 964.066 720.635 965.673L740.543 1066.49C741.031 1068.97 742.35 1071.2 744.281 1072.83C746.212 1074.45 748.64 1075.37 751.163 1075.43L902.688 1078.9C905.278 1078.96 907.807 1078.11 909.84 1076.51C911.872 1074.9 913.281 1072.64 913.824 1070.1Z" fill="white" stroke="#263238" stroke-width="1.10311" stroke-linecap="round" stroke-linejoin="round"/>
<path d="M843.154 1012.61C843.149 1015.66 842.238 1018.65 840.536 1021.18C838.835 1023.72 836.42 1025.7 833.595 1026.86C830.771 1028.03 827.665 1028.33 824.669 1027.73C821.673 1027.13 818.922 1025.66 816.763 1023.5C814.604 1021.33 813.135 1018.58 812.541 1015.58C811.947 1012.59 812.255 1009.48 813.425 1006.66C814.596 1003.84 816.576 1001.42 819.117 999.728C821.658 998.031 824.645 997.125 827.7 997.125C829.732 997.125 831.744 997.526 833.62 998.304C835.497 999.082 837.202 1000.22 838.637 1001.66C840.073 1003.1 841.211 1004.81 841.986 1006.68C842.761 1008.56 843.158 1010.57 843.154 1012.61Z" fill="#263238"/>
<path d="M873.547 962.387H896.551" stroke="#263238" stroke-width="1.10311" stroke-linecap="round" stroke-linejoin="round"/>
<path d="M763.684 962.387H851.003" stroke="#263238" stroke-width="1.10311" stroke-linecap="round" stroke-linejoin="round"/>
<path d="M914.205 1180.83L896.551 1227.17C896.551 1227.17 851.52 1215.82 793.86 1204C733.537 1191.64 670.553 1175.65 637.88 1118.31C633.914 1111.33 631.253 1103.08 633.127 1095.25C637.825 1075.45 663.6 1070.08 680.575 1068.09C691.247 1066.94 701.971 1066.34 712.705 1066.3C718.137 1066.3 736.199 1063.34 740.572 1066.57C747.142 1071.37 754.153 1075.52 761.512 1078.98C771.154 1083.09 911.897 1075.32 911.897 1075.32C914.346 1069.98 915.844 1064.25 916.324 1058.4C938.459 1047.15 989.656 1037.65 1011.38 1041.86C1045.42 1048.46 1065.27 1068.31 1061.49 1089.12C1057.72 1109.92 982.54 1165.71 914.205 1180.83Z" fill="#263238"/>
<path d="M914.205 1180.84C914.205 1180.84 871.373 1169.48 836.391 1145.85C801.409 1122.22 774.086 1094.79 725.334 1100.47" stroke="white" stroke-width="1.10311" stroke-linecap="round" stroke-linejoin="round"/>
<path d="M828.379 1140.29C850.487 1133.93 866.702 1119.62 884.437 1105.9C903.144 1090.89 923.233 1077.68 944.434 1066.46" stroke="white" stroke-width="1.10311" stroke-linecap="round" stroke-linejoin="round"/>
<path d="M820.584 684.568H827.075" stroke="#263238" stroke-width="1.10311" stroke-linecap="round" stroke-linejoin="round"/>
</svg>
